<?xml version="1.0" encoding="UTF-8"?>
<svg xmlns="http://www.w3.org/2000/svg" xmlns:xlink="http://www.w3.org/1999/xlink" width="24px" height="24px" viewBox="0 0 24 24" version="1.1">
<g id="surface1">
<path style=" stroke:none;fill-rule:nonzero;fill:rgb(40%,40%,40%);fill-opacity:1;" d="M 17.164062 18.933594 L 12.015625 13.78125 L 6.851562 18.945312 C 6.296875 19.5 5.496094 19.609375 4.945312 19.054688 C 4.390625 18.5 4.523438 17.730469 5.078125 17.175781 L 10.242188 12.011719 L 5.066406 6.835938 C 4.511719 6.28125 4.390625 5.496094 4.945312 4.941406 C 5.496094 4.386719 6.265625 4.527344 6.820312 5.082031 L 11.992188 10.257812 L 17.175781 5.078125 C 17.730469 4.523438 18.503906 4.386719 19.054688 4.941406 C 19.609375 5.496094 19.503906 6.296875 18.949219 6.851562 L 13.765625 12.03125 L 18.914062 17.179688 C 19.46875 17.734375 19.609375 18.5 19.054688 19.054688 C 18.503906 19.609375 17.71875 19.488281 17.164062 18.933594 Z M 17.164062 18.933594 "/>
</g>
</svg>
