<svg width="41" height="41" viewBox="0 0 41 41" fill="none" xmlns="http://www.w3.org/2000/svg">
<path d="M39.5999 31.0921C39.5999 31.0921 41.0428 24.3584 33.6498 23.2622C27.9985 21.2611 24.8015 14.6928 24.2086 8.96748C23.7639 4.61326 14.5827 -1.3165 6.89336 8.96687C1.85807 15.7004 3.5288 27.606 10.7412 33.0154C20.3604 40.2301 37.2924 40.2801 39.5999 31.0921Z" fill="#ADC6FF"/>
<path d="M33.6851 16.8638C32.6339 17.4405 32.8385 18.9316 33.4152 19.9828C33.9919 21.034 35.8472 22.6102 37.3329 20.8049C38.2244 19.7217 37.4314 18.2756 36.6325 17.723C35.8342 17.1705 34.7362 16.2871 33.6851 16.8638Z" fill="#ADC6FF"/>
<path d="M35.2415 27.7926C35.2023 27.6276 34.9721 27.6158 34.9162 27.7759L33.9966 30.4093C33.9776 30.4637 33.9323 30.5047 33.8763 30.5183L31.7536 31.0313C31.5886 31.0712 31.5779 31.3018 31.7386 31.3568L33.9855 32.1258C34.0358 32.143 34.0751 32.1828 34.0918 32.2333L34.8562 34.5569C34.9065 34.7095 35.1209 34.7133 35.1766 34.5626L36.0703 32.1434C36.0889 32.0932 36.1301 32.0547 36.1814 32.0395L38.4044 31.3824C38.5684 31.3339 38.5659 31.1008 38.4009 31.0559L35.949 30.3887C35.889 30.3724 35.8428 30.3246 35.8284 30.2642L35.2415 27.7926Z" fill="white"/>
<path d="M8.643 12.8331C8.60382 12.6682 8.37358 12.6563 8.31768 12.8164L7.80694 14.2791C7.78794 14.3335 7.74262 14.3746 7.68659 14.3881L6.55928 14.6606C6.39427 14.7004 6.38359 14.9311 6.5442 14.9861L7.76029 15.4023C7.81059 15.4195 7.84992 15.4593 7.86654 15.5098L8.29332 16.8069C8.34354 16.9595 8.55802 16.9634 8.6137 16.8127L9.1164 15.4519C9.13496 15.4017 9.17613 15.3632 9.22748 15.348L10.4196 14.9956C10.5836 14.9472 10.5811 14.714 10.4161 14.6692L9.08391 14.3066C9.02396 14.2903 8.97772 14.2426 8.96336 14.1821L8.643 12.8331Z" fill="white"/>
<path d="M27.5296 5.26855H14.4562C13.0958 5.26855 11.9929 6.42763 11.9929 7.85742V35.6797C11.9929 37.1095 13.0958 38.2686 14.4562 38.2686H27.5296C28.89 38.2686 29.9929 37.1095 29.9929 35.6797V7.85742C29.9929 6.42763 28.89 5.26855 27.5296 5.26855Z" fill="#333333"/>
<path d="M23.1097 7.09008H18.8763C18.6917 7.09008 18.5215 6.92841 18.5215 6.71716C18.5215 6.50591 18.6753 6.34424 18.8763 6.34424H23.1097C23.2943 6.34424 23.4645 6.50591 23.4645 6.71716C23.4645 6.92841 23.3107 7.09008 23.1097 7.09008Z" fill="white"/>
<path d="M27.5295 8.16797H14.4562C13.2656 8.16797 12.3005 9.18228 12.3005 10.4335V33.4768C12.3005 34.728 13.2656 35.7424 14.4562 35.7424H27.5295C28.7201 35.7424 29.6852 34.728 29.6852 33.4768V10.4335C29.6852 9.18228 28.7201 8.16797 27.5295 8.16797Z" fill="#570D48"/>
<path d="M27.5275 8.49141C28.5469 8.49141 29.3755 9.36227 29.3755 10.4336V33.4748C29.3755 34.5461 28.5469 35.4169 27.5275 35.4169H14.4562C13.4368 35.4169 12.6082 34.5461 12.6082 33.4748V10.4336C12.6082 9.36227 13.4368 8.49141 14.4562 8.49141H27.5275ZM27.5275 7.84473H14.4562C13.0964 7.84473 11.9929 9.00444 11.9929 10.4336V33.4748C11.9929 34.9039 13.0964 36.0636 14.4562 36.0636H27.5275C28.8874 36.0636 29.9908 34.9039 29.9908 33.4748V10.4336C29.9908 9.00228 28.8874 7.84473 27.5275 7.84473Z" fill="#333333"/>
<path d="M21.3774 18.3834C22.281 19.3164 22.4133 20.2495 22.4133 20.9254L22.3912 25.5098C22.3839 26.0755 21.9137 26.531 21.3333 26.5237C20.7529 26.5163 20.2827 26.0608 20.2827 25.4951L20.3121 20.8813C20.3194 20.4772 20.1725 20.0805 19.886 19.7866C19.57 19.456 19.1807 19.3017 18.7178 19.2944C18.277 19.2871 17.9097 19.434 17.5864 19.7352C17.2778 20.0364 17.1162 20.4038 17.1162 20.8299L17.0795 25.4878C17.0721 26.0461 16.6019 26.4943 16.0289 26.4943C15.4485 26.4869 14.9856 26.0388 14.993 25.4731L15.0224 20.8372C15.0297 19.9777 15.3383 19.1401 15.9334 18.5009C16.6901 17.6781 17.6378 17.2667 18.7252 17.274C19.7758 17.2814 20.6647 17.6487 21.3774 18.3834Z" fill="#FF9D00"/>
<path d="M26.6749 18.3854C27.5786 19.3184 27.7108 20.2515 27.7108 20.9274L27.6888 25.5118C27.6815 26.0775 27.2113 26.533 26.6309 26.5256C26.0505 26.5183 25.5803 26.0628 25.5803 25.4971L25.6097 20.8833C25.617 20.4792 25.4701 20.0825 25.1835 19.7886C24.8676 19.458 24.4782 19.3037 24.0154 19.2964C23.5746 19.289 23.2073 19.436 22.884 19.7372C22.5754 20.0384 22.4138 20.4057 22.4138 20.8319L22.3844 25.4824C22.3771 26.0407 21.9069 26.4889 21.3338 26.4889C20.7534 26.4815 20.2906 26.0334 20.2979 25.4677L20.3273 20.8319C20.3347 19.9723 20.6432 19.1347 21.2383 18.4956C22.0024 17.6727 22.9428 17.2613 24.0374 17.2687C25.066 17.2833 25.9623 17.6507 26.6749 18.3854Z" fill="#FF9D00"/>
</svg>
