<?xml version="1.0" encoding="UTF-8"?>
<svg xmlns="http://www.w3.org/2000/svg" xmlns:xlink="http://www.w3.org/1999/xlink" width="30px" height="30px" viewBox="0 0 30 30" version="1.1">
<g id="surface1">
<path style=" stroke:none;fill-rule:nonzero;fill:rgb(40%,40%,40%);fill-opacity:1;" d="M 8.160156 3.75 C 8.820312 3.75 9.367188 4.261719 9.417969 4.910156 L 9.421875 5.015625 L 9.421875 26.109375 C 9.421875 26.808594 8.855469 27.375 8.160156 27.375 C 7.496094 27.375 6.953125 26.863281 6.902344 26.210938 L 6.898438 26.109375 L 6.898438 5.015625 C 6.898438 4.316406 7.460938 3.75 8.160156 3.75 Z M 8.160156 3.75 "/>
<path style=" stroke:none;fill-rule:nonzero;fill:rgb(40%,40%,40%);fill-opacity:1;" d="M 12.289062 20.179688 C 12.78125 19.6875 13.582031 19.6875 14.074219 20.179688 C 14.539062 20.648438 14.566406 21.386719 14.152344 21.886719 L 14.074219 21.972656 L 9.050781 27.003906 C 8.558594 27.496094 7.757812 27.496094 7.265625 27.003906 C 6.800781 26.535156 6.773438 25.796875 7.1875 25.296875 L 7.265625 25.214844 Z M 12.289062 20.179688 "/>
<path style=" stroke:none;fill-rule:nonzero;fill:rgb(40%,40%,40%);fill-opacity:1;" d="M 2.246094 20.179688 C 2.710938 19.714844 3.449219 19.6875 3.945312 20.101562 L 4.03125 20.179688 L 9.054688 25.214844 C 9.546875 25.707031 9.546875 26.507812 9.054688 27.003906 C 8.585938 27.46875 7.847656 27.496094 7.351562 27.082031 L 7.265625 27.003906 L 2.246094 21.972656 C 1.75 21.476562 1.75 20.675781 2.246094 20.179688 Z M 2.246094 20.179688 "/>
<path style=" stroke:none;fill-rule:nonzero;fill:rgb(40%,40%,40%);fill-opacity:1;" d="M 21.839844 3.75 C 22.503906 3.75 23.046875 4.261719 23.097656 4.910156 L 23.105469 5.015625 L 23.105469 26.109375 C 23.105469 26.808594 22.539062 27.375 21.839844 27.375 C 21.179688 27.375 20.636719 26.863281 20.582031 26.210938 L 20.578125 26.109375 L 20.578125 5.015625 C 20.578125 4.316406 21.144531 3.75 21.839844 3.75 Z M 21.839844 3.75 "/>
<path style=" stroke:none;fill-rule:nonzero;fill:rgb(40%,40%,40%);fill-opacity:1;" d="M 20.945312 4.121094 C 21.441406 3.625 22.238281 3.625 22.734375 4.121094 C 23.199219 4.585938 23.226562 5.328125 22.8125 5.824219 L 22.734375 5.910156 L 17.710938 10.945312 C 17.21875 11.4375 16.417969 11.4375 15.925781 10.945312 C 15.460938 10.476562 15.433594 9.734375 15.847656 9.238281 L 15.925781 9.152344 Z M 20.945312 4.121094 "/>
<path style=" stroke:none;fill-rule:nonzero;fill:rgb(40%,40%,40%);fill-opacity:1;" d="M 20.949219 4.121094 C 21.414062 3.652344 22.152344 3.628906 22.648438 4.042969 L 22.734375 4.121094 L 27.753906 9.152344 C 28.25 9.648438 28.25 10.449219 27.753906 10.945312 C 27.289062 11.410156 26.550781 11.4375 26.054688 11.019531 L 25.96875 10.941406 L 20.949219 5.910156 C 20.453125 5.417969 20.453125 4.613281 20.949219 4.121094 Z M 20.949219 4.121094 "/>
</g>
</svg>
