<svg width="24" height="25" viewBox="0 0 24 25" fill="none" xmlns="http://www.w3.org/2000/svg">
<g clip-path="url(#clip0_1522_54331)">
<path opacity="0.6" d="M12 0.302734C18.63 0.302734 24 5.67273 24 12.3027C24 18.9327 18.63 24.3027 12 24.3027C5.37 24.3027 0 18.9327 0 12.3027C0 5.67273 5.37 0.302734 12 0.302734Z" fill="white"/>
<g clip-path="url(#clip1_1522_54331)">
<path d="M12 19.3504C11.8428 19.3504 11.6856 19.3021 11.5465 19.2116C6.52791 15.9233 5.5 13.715 5.5 11.4101C5.5 8.83976 7.38047 7.65716 9.13395 7.65113C9.95023 7.63303 11.0749 7.94074 12 9.41296C12.9251 7.94074 14.0558 7.63303 14.8781 7.65113C16.6195 7.65716 18.5 8.83372 18.5 11.4101C18.5 13.715 17.4721 15.9172 12.4474 19.2116C12.3084 19.3021 12.1572 19.3504 12 19.3504ZM9.19442 8.55618C9.19442 8.55618 9.15814 8.55618 9.14605 8.55618C7.77954 8.55618 6.40698 9.44312 6.40698 11.4101C6.40698 13.3771 7.36233 15.3742 12 18.4212C16.6377 15.3742 17.593 13.4133 17.593 11.4101C17.593 9.40692 16.2205 8.56221 14.866 8.55618C13.9047 8.53204 13.0642 9.19574 12.4535 10.4749C12.4172 10.5473 12.393 10.5956 12.3809 10.6137C12.2116 10.8731 11.7884 10.8731 11.6191 10.6137C11.607 10.5956 11.5828 10.5473 11.5465 10.4749C10.9479 9.21988 10.1316 8.55618 9.19442 8.55618Z" fill="#616173"/>
</g>
</g>
<defs>
<clipPath id="clip0_1522_54331">
<rect width="24" height="24" fill="white" transform="translate(0 0.302734)"/>
</clipPath>
<clipPath id="clip1_1522_54331">
<rect width="13" height="13" fill="white" transform="translate(5.5 7)"/>
</clipPath>
</defs>
</svg>
