<svg width="16" height="17" viewBox="0 0 16 17" fill="none" xmlns="http://www.w3.org/2000/svg">
<g clip-path="url(#clip0_2024_57256)">
<path d="M12.2052 14.9195C12.2052 15.8811 10.3747 16.6574 8.12702 16.6574C5.87938 16.6574 4.04883 15.8811 4.04883 14.9195C4.06041 14.7921 4.11834 14.653 4.17627 14.5488C4.58177 13.7609 6.20378 13.1816 8.15019 13.1816C10.0966 13.1816 11.7186 13.7609 12.1125 14.5488C12.1704 14.653 12.2052 14.7921 12.2052 14.9195Z" fill="#3A66CF"/>
<path d="M13.6421 5.80131C13.225 0.622476 8.09254 0.657233 8.09254 0.657233C8.09254 0.657233 2.93688 0.622476 2.51979 5.80131C2.16063 10.3893 6.79494 14.1894 7.86083 15.0004C7.91876 15.0467 7.99986 15.0699 8.08096 15.0699C8.16206 15.0699 8.23157 15.0467 8.30109 15.0004C9.36698 14.1894 14.0129 10.3893 13.6421 5.80131ZM8.09254 8.43128C7.66387 8.43128 7.24678 8.30383 6.89921 8.07212C6.54005 7.8404 6.26199 7.50442 6.09979 7.1105C5.93759 6.71658 5.89125 6.28791 5.97235 5.87082C6.05345 5.45374 6.26199 5.07141 6.56322 4.77018C6.86445 4.46895 7.24678 4.2604 7.66387 4.1793C8.08096 4.0982 8.50963 4.13296 8.90355 4.29516C9.29746 4.45736 9.63345 4.73542 9.87675 5.08299C10.1085 5.44215 10.2359 5.85924 10.2359 6.27633C10.2359 6.84403 10.0158 7.38856 9.61028 7.79406C9.20477 8.19956 8.66024 8.43128 8.09254 8.43128Z" fill="#90B1FB"/>
</g>
<defs>
<clipPath id="clip0_2024_57256">
<rect width="16" height="16" fill="white" transform="translate(0 0.657227)"/>
</clipPath>
</defs>
</svg>
